<svg width="937" height="439" xmlns="http://www.w3.org/2000/svg" xmlns:xlink="http://www.w3.org/1999/xlink" overflow="hidden"><defs><clipPath id="clip0"><path d="M161 174 1098 174 1098 613 161 613Z" fill-rule="evenodd" clip-rule="evenodd"/></clipPath></defs><g clip-path="url(#clip0)" transform="translate(-161 -174)"><rect x="166.5" y="349.5" width="191" height="97" stroke="#44546A" stroke-width="2.66667" stroke-miterlimit="8" fill="none"/><text font-family="Calibri,Calibri_MSFontService,sans-serif" font-weight="700" font-size="24" transform="translate(234.747 377)">Input<tspan font-weight="400" x="-59.0067" y="29">Confirmed COVID </tspan><tspan font-weight="400" x="0.519989" y="58">cases</tspan></text><rect x="412.5" y="349.5" width="191" height="97" stroke="#44546A" stroke-width="2.66667" stroke-miterlimit="8" fill="none"/><text font-family="Calibri,Calibri_MSFontService,sans-serif" font-weight="700" font-size="24" transform="translate(436.751 391)">Predict Future <tspan x="42.6467" y="29">Cases</tspan></text><rect x="659.5" y="349.5" width="191" height="97" stroke="#44546A" stroke-width="2.66667" stroke-miterlimit="8" fill="none"/><text font-family="Calibri,Calibri_MSFontService,sans-serif" font-weight="700" font-size="24" transform="translate(684.171 391)">COVID Patient <tspan x="46.6267" y="29">Type</tspan></text><rect x="905.5" y="349.5" width="191" height="97" stroke="#44546A" stroke-width="2.66667" stroke-miterlimit="8" fill="none"/><text font-family="Calibri,Calibri_MSFontService,sans-serif" font-weight="700" font-size="24" transform="translate(943.792 391)">Predict PPE <tspan x="26.4133" y="29">Usage</tspan></text><path d="M357.5 397.167 405.621 397.167 405.621 399.833 357.5 399.833ZM404.288 394.5 412.288 398.5 404.288 402.5Z" fill="#44546A"/><path d="M2.48891e-06-1.33333 49.5758-1.33324 49.5758 1.33343-2.48891e-06 1.33333ZM48.2424-3.99991 56.2424 0.000104987 48.2424 4.00009Z" fill="#44546A" transform="matrix(1 0 0 -1 603.5 398.5)"/><path d="M2.55499e-06-1.33333 48.1212-1.33324 48.1212 1.33343-2.55499e-06 1.33333ZM46.7878-3.99991 54.7878 0.000104987 46.7878 4.00009Z" fill="#44546A" transform="matrix(1 0 0 -1 850.5 398.5)"/><path d="M1.33333-2.06886e-06 1.33335 10.6667-1.33332 10.6667-1.33333 2.06886e-06ZM1.33336 18.6667 1.33338 29.3333-1.33329 29.3333-1.3333 18.6667ZM1.33339 37.3333 1.33341 48-1.33326 48-1.33328 37.3333ZM1.33342 56 1.33343 60.9951-1.33324 60.9951-1.33325 56ZM4.00009 59.6617 0.000104987 67.6617-3.99991 59.6617Z" fill="#44546A" transform="matrix(1 0 0 -1 1000.5 514.162)"/><rect x="905.5" y="514.5" width="191" height="97" stroke="#44546A" stroke-width="2.66667" stroke-miterlimit="8" stroke-dasharray="8 2.66667" fill="none"/><text font-family="Calibri,Calibri_MSFontService,sans-serif" font-weight="400" font-size="24" transform="translate(960.992 570)">PPE <tspan x="41.8334" y="0">Use</tspan></text><rect x="905.5" y="176.5" width="191" height="97" stroke="#44546A" stroke-width="2.66667" stroke-miterlimit="8" stroke-dasharray="8 2.66667" fill="none"/><text font-family="Calibri,Calibri_MSFontService,sans-serif" font-weight="400" font-size="24" transform="translate(949.676 217)">PPE Usage <tspan x="14.3067" y="29">Policies</tspan></text><path d="M1001.83 273.5 1001.83 284.167 999.167 284.167 999.167 273.5ZM1001.83 292.167 1001.83 302.833 999.167 302.833 999.167 292.167ZM1001.83 310.833 1001.83 321.5 999.167 321.5 999.167 310.833ZM1001.83 329.5 1001.83 340.167 999.167 340.167 999.167 329.5ZM1004.5 342.186 1000.5 350.186 996.5 342.186Z" fill="#44546A"/></g></svg>